<svg width="20" height="20" viewBox="0 0 20 20" fill="none" xmlns="http://www.w3.org/2000/svg">
<path d="M10.0003 1C14.9707 1.00008 19.0003 5.0295 19.0003 10C19.0003 14.9705 14.9707 18.9999 10.0003 19C5.02981 19 1.00031 14.9705 1.00031 10C1.00031 5.02945 5.02981 1 10.0003 1Z" fill="white" stroke="#B0E0E6" stroke-width="2"/>
<path d="M10.0003 1C14.9707 1.00008 19.0003 5.0295 19.0003 10C19.0003 14.9705 14.9707 18.9999 10.0003 19C5.02981 19 1.00031 14.9705 1.00031 10C1.00031 5.02945 5.02981 1 10.0003 1Z" stroke="#B0E0E6" stroke-width="2"/>
<path d="M10.0002 2V4" stroke="black" stroke-width="2" stroke-linecap="round"/>
<path d="M10.0002 2V4" stroke="black" stroke-width="2" stroke-linecap="round"/>
<path d="M10.0002 16V18" stroke="black" stroke-width="2" stroke-linecap="round"/>
<path d="M10.0002 16V18" stroke="black" stroke-width="2" stroke-linecap="round"/>
<path d="M3.99927 10.0625L2.00001 10.0093" stroke="black" stroke-width="2" stroke-linecap="round"/>
<path d="M3.99927 10.0625L2.00001 10.0093" stroke="black" stroke-width="2" stroke-linecap="round"/>
<path d="M17.9993 10.0532L16.0001 9.99998" stroke="black" stroke-width="2" stroke-linecap="round"/>
<path d="M17.9993 10.0532L16.0001 9.99998" stroke="black" stroke-width="2" stroke-linecap="round"/>
<path d="M8.96007 9.22198L12.6383 5.71637L11.4416 10.6547L8.96007 9.22198Z" fill="#FF0000" stroke="#FF0000" stroke-width="2" stroke-linecap="round" stroke-linejoin="round"/>
<path d="M11.4412 10.6545L7.82986 14.2241L8.93738 9.2613L11.4412 10.6545Z" stroke="black" stroke-width="2" stroke-linecap="round" stroke-linejoin="round"/>
<path d="M8.96007 9.22198L12.6383 5.71637L11.4416 10.6547L8.96007 9.22198Z" fill="#FF0000" stroke="#FF0000" stroke-width="2" stroke-linecap="round" stroke-linejoin="round"/>
<path d="M11.4412 10.6545L7.82986 14.2241L8.93738 9.2613L11.4412 10.6545Z" stroke="black" stroke-width="2" stroke-linecap="round" stroke-linejoin="round"/>
</svg>
